<svg width="20" height="20" viewBox="0 0 20 20" fill="none" xmlns="http://www.w3.org/2000/svg">
<path d="M5 15H1.25C0.895838 15 0.598755 14.88 0.358755 14.64C0.118755 14.4 -0.000829008 14.1033 4.32525e-06 13.75C4.32525e-06 13.3958 0.120004 13.0988 0.360004 12.8588C0.600004 12.6188 0.896671 12.4992 1.25 12.5H5V7.5H1.25C0.895838 7.5 0.598755 7.38 0.358755 7.14C0.118755 6.9 -0.000829008 6.60334 4.32525e-06 6.25C4.32525e-06 5.89584 0.120004 5.59875 0.360004 5.35875C0.600004 5.11875 0.896671 4.99917 1.25 5H5V1.25C5 0.895838 5.12 0.598755 5.36 0.358755C5.6 0.118755 5.89667 -0.000829008 6.25 4.32525e-06C6.60417 4.32525e-06 6.90125 0.120004 7.14125 0.360004C7.38125 0.600004 7.50084 0.896671 7.5 1.25V5H12.5V1.25C12.5 0.895838 12.62 0.598755 12.86 0.358755C13.1 0.118755 13.3967 -0.000829008 13.75 4.32525e-06C14.1042 4.32525e-06 14.4013 0.120004 14.6413 0.360004C14.8813 0.600004 15.0008 0.896671 15 1.25V5H18.75C19.1042 5 19.4013 5.12 19.6413 5.36C19.8813 5.6 20.0008 5.89667 20 6.25C20 6.60417 19.88 6.90125 19.64 7.14125C19.4 7.38125 19.1033 7.50084 18.75 7.5H15V12.5H18.75C19.1042 12.5 19.4013 12.62 19.6413 12.86C19.8813 13.1 20.0008 13.3967 20 13.75C20 14.1042 19.88 14.4013 19.64 14.6413C19.4 14.8813 19.1033 15.0008 18.75 15H15V18.75C15 19.1042 14.88 19.4013 14.64 19.6413C14.4 19.8813 14.1033 20.0008 13.75 20C13.3958 20 13.0988 19.88 12.8588 19.64C12.6188 19.4 12.4992 19.1033 12.5 18.75V15H7.5V18.75C7.5 19.1042 7.38 19.4013 7.14 19.6413C6.9 19.8813 6.60334 20.0008 6.25 20C5.89584 20 5.59875 19.88 5.35875 19.64C5.11875 19.4 4.99917 19.1033 5 18.75V15ZM7.5 12.5H12.5V7.5H7.5V12.5Z" fill="#A7A7A7"/>
</svg>
